<?xml version="1.0" standalone="no"?>
<!DOCTYPE svg PUBLIC "-//W3C//DTD SVG 20010904//EN"
 "http://www.w3.org/TR/2001/REC-SVG-20010904/DTD/svg10.dtd">
<svg version="1.0" xmlns="http://www.w3.org/2000/svg"
 width="720.000000pt" height="720.000000pt" viewBox="0 0 720.000000 720.000000"
 preserveAspectRatio="xMidYMid meet">
<metadata>
Created by potrace 1.11, written by Peter Selinger 2001-2013
</metadata>
<g transform="translate(0.000000,720.000000) scale(0.100000,-0.100000)"
fill="#000000" stroke="none">
<path d="M3070 7180 c0 -5 5 -10 11 -10 5 0 7 5 4 10 -3 6 -8 10 -11 10 -2 0
-4 -4 -4 -10z"/>
<path d="M4230 7166 c0 -2 7 -7 16 -10 8 -3 12 -2 9 4 -6 10 -25 14 -25 6z"/>
<path d="M4710 7056 c0 -2 8 -10 18 -17 15 -13 16 -12 3 4 -13 16 -21 21 -21
13z"/>
<path d="M2205 6940 c-3 -6 1 -7 9 -4 18 7 21 14 7 14 -6 0 -13 -4 -16 -10z"/>
<path d="M3348 6775 c-1 -1 -37 -6 -78 -9 -240 -22 -562 -102 -820 -203 -464
-182 -887 -478 -1240 -869 -258 -286 -492 -694 -628 -1095 -52 -152 -104 -362
-100 -402 5 -57 36 -42 98 48 30 44 100 125 155 180 246 245 573 392 990 445
90 12 428 16 495 6 19 -3 71 -10 114 -16 354 -47 686 -202 915 -429 127 -126
204 -241 272 -406 29 -71 54 -171 65 -260 14 -114 19 -124 70 -125 40 -2 84 7
189 37 201 58 367 166 515 335 273 313 428 833 392 1310 -32 419 -172 791
-396 1053 -132 154 -347 292 -536 344 -41 12 -111 25 -155 31 -44 5 -96 12
-115 16 -41 6 -197 14 -202 9z"/>
<path d="M4146 6712 c-11 -18 4 -39 52 -72 120 -85 250 -219 340 -352 71 -104
196 -381 216 -481 3 -12 16 -74 30 -137 37 -170 49 -340 43 -573 -9 -353 -68
-610 -198 -867 -166 -329 -413 -550 -714 -639 -102 -30 -126 -35 -226 -47 -71
-8 -88 -30 -71 -96 6 -24 13 -63 16 -88 11 -99 82 -266 167 -393 60 -89 219
-243 320 -310 214 -142 520 -257 754 -283 22 -3 45 -6 52 -9 10 -3 104 -12
223 -19 64 -4 249 11 360 29 324 54 595 171 821 353 209 168 351 421 396 705
12 76 16 176 17 387 1 275 0 289 -26 408 -85 381 -202 677 -399 1007 -305 510
-769 939 -1304 1208 -299 149 -839 317 -869 269z"/>
<path d="M1849 4796 c-2 -2 -29 -7 -59 -10 -151 -15 -314 -55 -467 -112 -259
-97 -490 -263 -633 -455 -105 -141 -165 -284 -224 -536 -41 -171 -39 -286 9
-573 80 -477 266 -929 546 -1325 330 -467 816 -860 1341 -1083 219 -94 538
-189 538 -162 0 5 -38 38 -84 74 -179 141 -332 333 -428 541 -164 355 -211
825 -128 1260 56 288 175 547 349 759 97 118 261 251 386 314 123 62 257 103
399 122 45 7 84 15 89 19 16 16 15 56 -3 144 -86 420 -372 732 -824 901 -115
43 -290 90 -401 106 -75 12 -398 24 -406 16z"/>
<path d="M3435 3504 c-11 -2 -45 -9 -75 -15 -132 -27 -264 -82 -392 -165 -112
-72 -169 -122 -263 -229 -48 -54 -146 -208 -191 -297 -82 -162 -152 -399 -179
-598 -26 -193 -20 -350 20 -554 107 -541 383 -913 801 -1079 105 -42 324 -98
408 -103 32 -3 65 -8 75 -13 21 -11 261 -1 321 14 3 0 31 5 64 9 243 32 528
111 775 212 643 266 1210 764 1546 1359 42 74 149 291 179 362 86 204 184 545
165 574 -4 8 -10 11 -12 9 -2 -3 -26 -36 -52 -75 -135 -196 -326 -355 -554
-463 -92 -43 -295 -115 -356 -125 -16 -3 -64 -12 -105 -20 -123 -24 -293 -39
-435 -39 -124 0 -319 15 -365 27 -8 2 -35 7 -60 10 -77 11 -241 55 -340 92
-392 147 -692 417 -819 741 -28 71 -60 195 -68 261 -12 107 -22 119 -88 105z"/>
</g>
</svg>
